<svg width="15" height="16" viewBox="0 0 15 16" fill="none" xmlns="http://www.w3.org/2000/svg">
<path d="M6.29289 7.29289C5.90237 7.68342 5.90237 8.31658 6.29289 8.70711L12.6569 15.0711C13.0474 15.4616 13.6805 15.4616 14.0711 15.0711C14.4616 14.6805 14.4616 14.0474 14.0711 13.6569L8.41421 8L14.0711 2.34315C14.4616 1.95262 14.4616 1.31946 14.0711 0.928932C13.6805 0.538408 13.0474 0.538408 12.6569 0.928932L6.29289 7.29289ZM8.70711 8.70711C9.09763 8.31658 9.09763 7.68342 8.70711 7.29289L2.34315 0.928932C1.95262 0.538408 1.31946 0.538408 0.928932 0.928932C0.538408 1.31946 0.538408 1.95262 0.928932 2.34315L6.58579 8L0.928932 13.6569C0.538408 14.0474 0.538408 14.6805 0.928932 15.0711C1.31946 15.4616 1.95262 15.4616 2.34315 15.0711L8.70711 8.70711ZM7 9H8V7H7V9Z" fill="black"/>
</svg>
