<svg width="38" height="38" fill="none" xmlns="http://www.w3.org/2000/svg"><path d="M19 14.053A4.957 4.957 0 0014.053 19 4.957 4.957 0 0019 23.946 4.957 4.957 0 0023.947 19 4.957 4.957 0 0019 14.053zM33.836 19c0-2.049.019-4.079-.096-6.123-.115-2.375-.657-4.483-2.394-6.22-1.74-1.74-3.844-2.278-6.22-2.393-2.048-.115-4.078-.097-6.122-.097-2.049 0-4.079-.018-6.123.097-2.375.115-4.483.656-6.22 2.393-1.74 1.74-2.278 3.845-2.393 6.22-.116 2.048-.097 4.078-.097 6.123 0 2.044-.019 4.078.097 6.123.115 2.375.656 4.483 2.393 6.22 1.74 1.74 3.845 2.278 6.22 2.393 2.048.115 4.078.096 6.123.096 2.048 0 4.078.019 6.123-.096 2.375-.115 4.483-.657 6.22-2.394 1.74-1.74 2.278-3.844 2.393-6.22.118-2.044.096-4.074.096-6.122zM19 26.61A7.6 7.6 0 0111.389 19a7.6 7.6 0 017.61-7.611 7.6 7.6 0 017.612 7.61A7.6 7.6 0 0119 26.612zm7.923-13.756a1.775 1.775 0 01-1.778-1.777c0-.983.794-1.778 1.778-1.778a1.775 1.775 0 011.643 2.459 1.773 1.773 0 01-1.643 1.096z" fill="#000" opacity=".5"/></svg>
