<svg width="245" height="78" fill="none" xmlns="http://www.w3.org/2000/svg"><g clip-path="url(#clip0)" fill="#83C8D2"><path d="M240.984 0H4L0 4.013V74.02l4 4.014h236.984L245 74.019V4.013L240.984 0zm-3.607 70.368H79.508V45.012h-9.467v25.356H7.607V7.632H70.04v25.372h9.467V7.632h157.885l-.016 62.736z"/><path d="M93.033 59.7h13.221l3.049-2.853V42.495h-7.229v10.93l-1.525 1.201h-1.672l-1.606-1.184V24.41l1.606-1.184h1.672l1.525 1.209v10.98h7.229V21.012l-3.049-2.854H93.033l-3.05 2.854v35.834l3.05 2.854zM127.91 54.626h-5.894V40.16h5.336v-5.075h-5.336V23.291h5.894v-5.066h-13.181v41.476h13.181v-5.075zM140.565 40.16h3.279l1.525 1.2V59.7h7.287V40.02l-2.394-2.476 2.394-2.845v-16.54h-7.287v15.725l-1.525 1.201h-3.279V18.16h-7.286v41.542h7.286V40.16zM172.229 62.933h7.345v-8.364h-2.107v-36.41h-7.221v36.467h-4.877V18.16h-7.222v41.542h14.082v3.232zM195.615 34v25.7h6.664V18.16h-6.755l-5.959 25.824V18.159h-6.672v41.542h6.689L195.615 34zM215.057 42.043l1.525-1.2h3.279V59.7h7.287V18.159h-16.271l-3.106 2.854v14.804l2.959 2.517-2.959 2.59v18.752h7.286V42.043zm0-17.608l1.525-1.21h3.279v12.543h-3.279l-1.525-1.226V24.435zM18.443 59.75h41.36V44.387H49.91v5.436H28.336V28.177H49.91v5.428h9.893V18.25h-41.36v41.5z"/></g><defs><clipPath id="clip0"><path fill="#fff" d="M0 0h245v78H0z"/></clipPath></defs></svg>
