<svg width="245" height="78" viewBox="0 0 245 78" fill="none" xmlns="http://www.w3.org/2000/svg">
<g clip-path="url(#clip0)">
<path d="M240.984 0H4L0 4.0135V74.0194L4 78.0329H240.984L245 74.0194V4.0135L240.984 0ZM237.377 70.3678H79.5082V45.012H70.041V70.3678H7.60656V7.63222H70.041V33.0044H79.5082V7.63222H237.393L237.377 70.3678Z" fill="#83C8D2"/>
<path d="M93.0328 59.7008H106.254L109.303 56.8469V42.4954H102.074V53.4256L100.549 54.6263H98.8771L97.2705 53.442V24.41L98.8771 23.2256H100.549L102.074 24.4346V35.4142H109.303V21.0133L106.254 18.1594H93.0328L89.9836 21.0133V56.8469L93.0328 59.7008Z" fill="#83C8D2"/>
<path d="M127.91 54.6263H122.016V40.1596H127.352V35.0852H122.016V23.2914H127.91V18.2252H114.729V59.7008H127.91V54.6263Z" fill="#83C8D2"/>
<path d="M140.565 40.1596H143.844L145.369 41.3604V59.7008H152.656V40.0198L150.262 37.5443L152.656 34.6986V18.1594H145.369V33.8844L143.844 35.0852H140.565V18.1594H133.279V59.7008H140.565V40.1596Z" fill="#83C8D2"/>
<path d="M172.229 62.9329H179.574V54.5687H177.467V18.1594H170.246V54.6263H165.369V18.1594H158.147V59.7008H172.229V62.9329Z" fill="#83C8D2"/>
<path d="M195.615 33.9996V59.7008H202.279V18.1594H195.524L189.565 43.984V18.1594H182.893V59.7008H189.582L195.615 33.9996Z" fill="#83C8D2"/>
<path d="M215.057 42.043L216.582 40.8423H219.861V59.7008H227.148V18.1594H210.877L207.771 21.0133V35.8172L210.73 38.3338L207.771 40.9245V59.6761H215.057V42.043ZM215.057 24.4346L216.582 23.2256H219.861V35.7678H216.582L215.057 34.5424V24.4346Z" fill="#83C8D2"/>
<path d="M18.4426 59.7501H59.8033V44.387H49.9098V49.8233H28.3361V28.1767H49.9098V33.6048H59.8033V18.2499H18.4426V59.7501Z" fill="#83C8D2"/>
</g>
<defs>
<clipPath id="clip0">
<rect width="245" height="78" fill="white"/>
</clipPath>
</defs>
</svg>
