<svg width="180" height="58" viewBox="0 0 180 58" fill="none" xmlns="http://www.w3.org/2000/svg">
<g clip-path="url(#clip0)">
<path d="M177.049 0H2.93878L0 2.93878V54.1987L2.93878 57.1375H177.049L180 54.1987V2.93878L177.049 0ZM174.399 51.5249H58.4142V32.9589H51.4587V51.5249H5.58849V5.58849H51.4587V24.1666H58.4142V5.58849H174.412L174.399 51.5249Z" fill="white"/>
<path d="M68.3506 43.7144H78.0642L80.3044 41.6247V31.1162H74.9929V39.1196L73.8728 39.9988H72.6443L71.464 39.1316V17.8737L72.6443 17.0065H73.8728L74.9929 17.8917V25.9312H80.3044V15.3865L78.0642 13.2969H68.3506L66.1104 15.3865V41.6247L68.3506 43.7144Z" fill="white"/>
<path d="M93.9745 39.9985H89.6447V29.4056H93.565V25.69H89.6447V17.0543H93.9745V13.3447H84.291V43.7141H93.9745V39.9985Z" fill="white"/>
<path d="M103.273 29.4059H105.681L106.802 30.2852V43.7144H112.155V29.3036L110.397 27.4909L112.155 25.4073V13.2969H106.802V24.8111L105.681 25.6903H103.273V13.2969H97.9189V43.7144H103.273V29.4059Z" fill="white"/>
<path d="M126.536 46.0811H131.932V39.9566H130.384V13.2969H125.079V39.9988H121.495V13.2969H116.19V43.7144H126.536V46.0811Z" fill="white"/>
<path d="M143.717 24.8954V43.7144H148.613V13.2969H143.651L139.273 32.2062V13.2969H134.371V43.7144H139.285L143.717 24.8954Z" fill="white"/>
<path d="M158.001 30.785L159.121 29.9058H161.53V43.7144H166.884V13.2969H154.93L152.648 15.3865V26.2263L154.822 28.069L152.648 29.966V43.6963H158.001V30.785ZM158.001 17.8917L159.121 17.0065H161.53V26.1902H159.121L158.001 25.2929V17.8917Z" fill="white"/>
<path d="M13.5498 43.7507H43.9372V32.5015H36.6686V36.4821H20.8185V20.6319H36.6686V24.6065H43.9372V13.3633H13.5498V43.7507Z" fill="white"/>
</g>
<defs>
<clipPath id="clip0">
<rect width="180" height="57.1134" fill="white"/>
</clipPath>
</defs>
</svg>
