<svg width="40" height="40" viewBox="0 0 40 40" fill="none" xmlns="http://www.w3.org/2000/svg">
<path d="M19.9917 0C8.96833 0 0 8.97 0 19.9933C0 31.0267 8.96833 40 19.9917 40C31.025 40 40 31.025 40 19.9933C40 8.97 31.025 0 19.9917 0ZM9.84667 27.34C12.1357 26.6388 14.516 26.2805 16.91 26.2767C20.9333 26.2767 24.905 27.2967 28.3967 29.2267C28.605 29.34 28.7933 29.7133 28.88 30.18C28.9633 30.6467 28.93 31.125 28.7933 31.3733C28.7289 31.4915 28.6417 31.5956 28.5368 31.6798C28.4318 31.764 28.3112 31.8265 28.1819 31.8637C28.0526 31.9009 27.9172 31.912 27.7836 31.8965C27.6499 31.881 27.5207 31.8392 27.4033 31.7733C24.8387 30.3664 22.0176 29.4889 19.1073 29.1929C16.1971 28.8968 13.2571 29.1883 10.4617 30.05C10.3333 30.0915 10.198 30.107 10.0636 30.0957C9.92924 30.0844 9.79843 30.0465 9.67884 29.9841C9.55925 29.9218 9.45326 29.8362 9.36704 29.7325C9.28083 29.6288 9.21611 29.509 9.17667 29.38C8.99833 28.7967 9.36667 27.4967 9.84667 27.34ZM8.975 19.9733C11.5609 19.2708 14.2287 18.9149 16.9083 18.915C21.7317 18.915 26.52 20.0817 30.7583 22.2917C31.0567 22.4417 31.275 22.6983 31.375 23.0117C31.4256 23.1699 31.4439 23.3366 31.429 23.5021C31.4142 23.6675 31.3663 23.8283 31.2883 23.975C30.91 24.715 30.4667 25.2133 30.1883 25.2133C29.9853 25.2124 29.7853 25.1633 29.605 25.07C25.687 23.0245 21.3298 21.9639 16.91 21.98C14.4516 21.9751 12.0038 22.303 9.63333 22.955C9.4752 22.9982 9.3101 23.0099 9.14746 22.9893C8.98482 22.9687 8.82783 22.9163 8.68545 22.8351C8.54306 22.7538 8.41808 22.6453 8.31763 22.5158C8.21717 22.3862 8.14323 22.2381 8.1 22.08C7.91333 21.3767 8.34167 20.1467 8.975 19.9733ZM8.75 15.1633C8.56241 15.2115 8.36713 15.222 8.17545 15.1943C7.98377 15.1665 7.79948 15.1011 7.63322 15.0018C7.46695 14.9025 7.32201 14.7712 7.20674 14.6156C7.09148 14.4599 7.00819 14.283 6.96167 14.095C6.75667 13.265 7.275 12.3017 8.02833 12.1117C10.9342 11.3959 13.9156 11.0328 16.9083 11.03C22.6583 11.03 28.1683 12.3233 33.2817 14.875C33.633 15.0497 33.9006 15.3567 34.0256 15.7287C34.1506 16.1006 34.1228 16.5069 33.9483 16.8583C33.71 17.3383 33.1933 17.855 32.6233 17.855C32.3998 17.8542 32.1791 17.8047 31.9767 17.71C27.301 15.3644 22.1394 14.1506 16.9083 14.1667C14.1833 14.1667 11.4383 14.5017 8.75 15.1633Z" fill="white"/>
</svg>
